<mxfile host="app.diagrams.net" modified="2021-08-30T02:45:46.996Z" agent="5.0 (Windows NT 10.0; Win64; x64) AppleWebKit/537.36 (KHTML, like Gecko) Chrome/92.0.4515.159 Safari/537.36 Edg/92.0.902.84" etag="H25NovG0HlxZdfP_QsD2" version="15.0.3" type="github">
  <diagram id="YsdfZj2j7OFNH7qHqHQd" name="Page-1">
    <mxGraphModel dx="868" dy="450" grid="1" gridSize="10" guides="1" tooltips="1" connect="1" arrows="1" fold="1" page="1" pageScale="1" pageWidth="850" pageHeight="1100" math="0" shadow="0">
      <root>
        <mxCell id="0" />
        <mxCell id="1" parent="0" />
        <mxCell id="b8-I02W2njOSqtNIUhgC-14" value="DatabaseServer01" style="rounded=0;whiteSpace=wrap;html=1;dashed=1;" vertex="1" parent="1">
          <mxGeometry x="670" y="185" width="170" height="220" as="geometry" />
        </mxCell>
        <mxCell id="b8-I02W2njOSqtNIUhgC-13" value="WebServer01" style="rounded=0;whiteSpace=wrap;html=1;dashed=1;" vertex="1" parent="1">
          <mxGeometry x="15" y="185" width="210" height="220" as="geometry" />
        </mxCell>
        <mxCell id="b8-I02W2njOSqtNIUhgC-12" value="ApplicationServer01" style="rounded=0;whiteSpace=wrap;html=1;dashed=1;" vertex="1" parent="1">
          <mxGeometry x="260" y="150" width="360" height="290" as="geometry" />
        </mxCell>
        <mxCell id="b8-I02W2njOSqtNIUhgC-6" style="edgeStyle=orthogonalEdgeStyle;rounded=0;orthogonalLoop=1;jettySize=auto;html=1;" edge="1" parent="1" source="b8-I02W2njOSqtNIUhgC-1" target="b8-I02W2njOSqtNIUhgC-2">
          <mxGeometry relative="1" as="geometry" />
        </mxCell>
        <mxCell id="b8-I02W2njOSqtNIUhgC-1" value="view" style="rounded=0;whiteSpace=wrap;html=1;" vertex="1" parent="1">
          <mxGeometry x="60" y="220" width="120" height="60" as="geometry" />
        </mxCell>
        <mxCell id="b8-I02W2njOSqtNIUhgC-5" style="edgeStyle=orthogonalEdgeStyle;rounded=0;orthogonalLoop=1;jettySize=auto;html=1;" edge="1" parent="1" source="b8-I02W2njOSqtNIUhgC-2" target="b8-I02W2njOSqtNIUhgC-3">
          <mxGeometry relative="1" as="geometry" />
        </mxCell>
        <mxCell id="b8-I02W2njOSqtNIUhgC-8" style="edgeStyle=orthogonalEdgeStyle;rounded=0;orthogonalLoop=1;jettySize=auto;html=1;" edge="1" parent="1" source="b8-I02W2njOSqtNIUhgC-2" target="b8-I02W2njOSqtNIUhgC-1">
          <mxGeometry relative="1" as="geometry" />
        </mxCell>
        <mxCell id="b8-I02W2njOSqtNIUhgC-2" value="controller" style="rounded=0;whiteSpace=wrap;html=1;" vertex="1" parent="1">
          <mxGeometry x="290" y="220" width="120" height="60" as="geometry" />
        </mxCell>
        <mxCell id="b8-I02W2njOSqtNIUhgC-7" style="edgeStyle=orthogonalEdgeStyle;rounded=0;orthogonalLoop=1;jettySize=auto;html=1;" edge="1" parent="1" source="b8-I02W2njOSqtNIUhgC-3" target="b8-I02W2njOSqtNIUhgC-4">
          <mxGeometry relative="1" as="geometry" />
        </mxCell>
        <mxCell id="b8-I02W2njOSqtNIUhgC-9" style="edgeStyle=orthogonalEdgeStyle;rounded=0;orthogonalLoop=1;jettySize=auto;html=1;" edge="1" parent="1" source="b8-I02W2njOSqtNIUhgC-3" target="b8-I02W2njOSqtNIUhgC-2">
          <mxGeometry relative="1" as="geometry" />
        </mxCell>
        <mxCell id="b8-I02W2njOSqtNIUhgC-3" value="model" style="rounded=0;whiteSpace=wrap;html=1;" vertex="1" parent="1">
          <mxGeometry x="450" y="220" width="130" height="60" as="geometry" />
        </mxCell>
        <mxCell id="b8-I02W2njOSqtNIUhgC-10" style="edgeStyle=orthogonalEdgeStyle;rounded=0;orthogonalLoop=1;jettySize=auto;html=1;" edge="1" parent="1" source="b8-I02W2njOSqtNIUhgC-4" target="b8-I02W2njOSqtNIUhgC-3">
          <mxGeometry relative="1" as="geometry" />
        </mxCell>
        <mxCell id="b8-I02W2njOSqtNIUhgC-4" value="database" style="rounded=0;whiteSpace=wrap;html=1;" vertex="1" parent="1">
          <mxGeometry x="700" y="220" width="120" height="60" as="geometry" />
        </mxCell>
      </root>
    </mxGraphModel>
  </diagram>
</mxfile>
